<?xml version="1.0" encoding="utf-8"?>
<!-- Generator: Adobe Illustrator 24.1.2, SVG Export Plug-In . SVG Version: 6.00 Build 0)  -->
<svg version="1.1" id="Livello_1" xmlns="http://www.w3.org/2000/svg" xmlns:xlink="http://www.w3.org/1999/xlink" x="0px" y="0px"
	 viewBox="0 0 577.53 68.94" style="enable-background:new 0 0 577.53 68.94;" xml:space="preserve">
<style type="text/css">
	.st0{fill:#F4A5A0;}
	.st1{fill:#6A1417;}
	.st2{fill:#E42227;}
	.st3{fill:#131618;}
	.st4{fill:#FFFFFF;}
</style>
<g>
	<path class="st0" d="M80.88,8.78h37.94l-2.21,11.41H93.67l-1.53,7.93h22.94l-2.18,11.24H89.96l-1.81,9.35h22.96l-2.25,11.64H70.89
		L80.88,8.78z M121.94,8.78h15l-7.73,39.92h23.07l-2.25,11.64h-38.07L121.94,8.78z M257.04,54.1c-4.31-5.06-5.56-11.74-4-19.78
		c1.58-8.15,5.4-14.68,11.47-19.52c6.1-4.86,14.61-7.23,23.16-7.23c8.47,0,16.2,2.35,20.58,7.4c4.38,5.02,5.65,11.69,4.09,19.76
		c-1.6,8.26-5.43,14.84-11.53,19.66c-6.1,4.84-14.7,7.19-23.44,7.19C269.02,61.57,261.38,59.19,257.04,54.1 M290.24,46.16
		c3.21-3.18,5.14-6.49,6.21-11.97c1.02-5.3,0.34-8.42-1.55-11.45c-1.82-2.92-4.66-4.42-8.8-4.42c-4.21,0-7.86,1.53-11.02,4.67
		c-3.15,3.14-5.28,7.38-6.33,12.81c-1.02,5.24-0.22,7.41,1.69,10.56c1.79,2.94,4.59,4.44,8.65,4.44
		C283.42,50.79,287.11,49.26,290.24,46.16 M319.86,8.78h16.19l16.1,29.81l5.77-29.81h15.03l-9.98,51.56h-16.38l-15.92-29.78
		l-5.76,29.78h-15.02L319.86,8.78z M226.11,29.97c7.94,0,11.42-1.89,12.38-6.86c0.55-2.87-1.01-4.96-8.27-4.96h-2.79l-2.29,11.82
		H226.11z M163.19,8.78h15.03l-4.11,21.25l22.5-21.25h15.36l-24.43,23.46l17.26,26.03l9.58-49.49h22.85
		c11.07,0,18.26,4.26,16.44,13.71c-0.64,3.29-2.23,6.27-4.73,8.92c-2.2,2.35-5.7,4.14-8.88,5.45l13.51,23.49h-18.98l-9.44-19.99
		h-1.99l-3.87,19.99h-13.11h-1.78h-17.62l-14.28-21.9l-4.24,21.9h-15.03L163.19,8.78z"/>
	<path class="st1" d="M82.38,9.91h37.94l-2.21,11.41H95.17l-1.53,7.93h22.94l-2.18,11.24H91.46l-1.81,9.35h22.96l-2.25,11.64H72.39
		L82.38,9.91z M123.45,9.91h15l-7.73,39.92h23.07l-2.25,11.64h-38.07L123.45,9.91z M258.54,55.23c-4.31-5.06-5.56-11.74-4-19.78
		c1.58-8.15,5.39-14.68,11.47-19.52c6.1-4.86,14.61-7.23,23.16-7.23c8.47,0,16.2,2.35,20.58,7.4c4.38,5.02,5.66,11.69,4.09,19.76
		c-1.6,8.26-5.43,14.84-11.53,19.66c-6.1,4.84-14.7,7.19-23.44,7.19C270.52,62.7,262.88,60.32,258.54,55.23 M291.74,47.29
		c3.21-3.18,5.14-6.49,6.2-11.97c1.02-5.3,0.34-8.42-1.54-11.45c-1.82-2.92-4.66-4.42-8.81-4.42c-4.2,0-7.86,1.53-11.02,4.66
		c-3.15,3.14-5.28,7.39-6.33,12.81c-1.01,5.24-0.22,7.41,1.69,10.56c1.79,2.94,4.59,4.45,8.65,4.45
		C284.92,51.92,288.61,50.39,291.74,47.29 M321.36,9.91h16.19l16.09,29.81l5.77-29.81h15.02l-9.98,51.56h-16.38l-15.92-29.78
		l-5.76,29.78h-15.03L321.36,9.91z M227.61,31.1c7.94,0,11.41-1.89,12.38-6.86c0.56-2.87-1.01-4.96-8.27-4.96h-2.78l-2.29,11.81
		H227.61z M164.69,9.91h15.03l-4.11,21.25l22.5-21.25h15.36l-24.44,23.46l17.26,26.03l9.58-49.49h22.84
		c11.07,0,18.26,4.26,16.43,13.71c-0.64,3.29-2.23,6.27-4.73,8.92c-2.2,2.35-5.71,4.14-8.88,5.44l13.51,23.49h-18.98l-9.44-19.99
		h-1.99l-3.87,19.99h-13.11h-1.78h-17.62l-14.29-21.9l-4.24,21.9h-15.02L164.69,9.91z"/>
	<path class="st2" d="M81.63,9.35h37.94l-2.21,11.41H94.42l-1.53,7.93h22.94l-2.18,11.24H90.71l-1.81,9.35h22.96l-2.25,11.64H71.64
		L81.63,9.35z M122.7,9.35h15l-7.73,39.92h23.07l-2.25,11.64h-38.07L122.7,9.35z M257.79,54.66c-4.32-5.06-5.56-11.74-4-19.78
		c1.58-8.15,5.4-14.68,11.46-19.52c6.1-4.86,14.61-7.23,23.16-7.23c8.47,0,16.2,2.35,20.58,7.4c4.38,5.02,5.65,11.69,4.09,19.76
		c-1.6,8.26-5.43,14.84-11.53,19.66c-6.1,4.84-14.7,7.19-23.44,7.19C269.77,62.13,262.13,59.75,257.79,54.66 M290.99,46.72
		c3.21-3.18,5.14-6.49,6.21-11.97c1.02-5.3,0.34-8.42-1.54-11.45c-1.82-2.92-4.66-4.42-8.81-4.42c-4.21,0-7.86,1.53-11.02,4.67
		c-3.15,3.14-5.28,7.38-6.33,12.81c-1.01,5.24-0.22,7.41,1.69,10.56c1.79,2.94,4.59,4.45,8.65,4.45
		C284.17,51.36,287.86,49.82,290.99,46.72 M320.61,9.35h16.19l16.1,29.81l5.77-29.81h15.02l-9.98,51.56h-16.38l-15.91-29.78
		l-5.77,29.78h-15.02L320.61,9.35z M226.86,30.53c7.94,0,11.42-1.89,12.38-6.86c0.55-2.87-1.02-4.96-8.27-4.96h-2.78l-2.28,11.81
		H226.86z M163.94,9.35h15.03l-4.11,21.25l22.5-21.25h15.36l-24.44,23.46l17.26,26.03l9.58-49.49h22.84
		c11.07,0,18.26,4.26,16.44,13.71c-0.64,3.29-2.23,6.27-4.73,8.92c-2.2,2.35-5.7,4.14-8.88,5.44l13.51,23.49h-18.98l-9.44-19.99
		h-1.99l-3.87,19.99h-13.11h-1.78h-17.62l-14.29-21.9l-4.24,21.9h-15.03L163.94,9.35z"/>
	<path class="st3" d="M23.65,9.08C15.44,26.64,12.14,44.2,13.49,61.16h-1.28c-1.42-17.56,2.01-34.82,9.96-52.08H23.65z"/>
	<path class="st3" d="M33.14,9.08c-8.46,17.6-12.15,35.09-10.11,52.08h-1.93c-2.41-17.7,1.44-34.99,10.2-52.08H33.14z"/>
	<path class="st3" d="M42.86,9.08c-9.26,17.33-12.87,34.75-10.2,52.08H30C27.48,43.53,30.79,26.1,40.39,9.08H42.86z"/>
	<path class="st3" d="M53,9.08C42.88,26.27,38.99,43.66,42.71,61.16H38.9c-3.5-17.7,0.08-34.99,10.37-52.08H53z"/>
	<path class="st3" d="M62.7,9.08C51.37,26.6,47.79,43.93,52.71,61.16h-5.03C43.02,42.9,47.05,25.63,57.91,9.08H62.7z"/>
	<path class="st3" d="M73.46,9.08c-13.21,17.2-17.02,34.88-9.99,52.08h-6.14c-6.35-18.53-2-35.85,10.38-52.08H73.46z"/>
	<path class="st3" d="M77.79,9.28L67.74,61.1C59.42,44.19,63.45,25.14,77.79,9.28"/>
	<path class="st3" d="M413.69,9.12l-6.24,0c3.48,17.68-0.1,34.96-10.37,52.03h6.41C412.73,43.85,416.35,26.44,413.69,9.12z"/>
	<path class="st3" d="M393.64,9.13l-4.62,0c6.33,18.51,1.97,35.82-10.4,52.03h5.01C394.95,43.65,398.54,26.34,393.64,9.13z"/>
	<path class="st3" d="M423.31,9.12l-6.97,0c2.51,17.62-0.8,35.03-10.39,52.04h7.25C421.65,43.58,425.34,26.1,423.31,9.12z"/>
	<path class="st3" d="M403.63,9.12l-4.96,0c4.65,18.24,0.6,35.49-10.24,52.03h4.91C403.44,43.98,407.34,26.6,403.63,9.12z"/>
	<path class="st3" d="M434.13,9.12c1.41,17.55-2.02,34.8-9.96,52.04h131.09l9.55-52.08L434.13,9.12z"/>
	<path class="st3" d="M432.85,9.12l-7.62,0c2.4,17.68-1.45,34.96-10.2,52.04h7.65C430.89,43.61,434.18,26.06,432.85,9.12z"/>
	<path class="st3" d="M382.88,9.13l-4.29,0c8.31,16.9,4.3,35.92-10,51.76l-0.05,0.26h4.33C386.07,43.98,389.89,26.31,382.88,9.13z"
		/>
	<path class="st4" d="M466.12,18.19c1.87,0,3.62,0.27,5.24,0.8c1.62,0.54,2.99,1.33,4.11,2.38c1.12,1.05,1.91,2.34,2.38,3.86
		c0.47,1.52,0.5,3.25,0.1,5.19c-0.43,1.97-1.05,3.66-1.86,5.07c-0.8,1.41-1.84,2.58-3.11,3.51c-1.27,0.94-2.8,1.62-4.59,2.06
		c-1.79,0.44-3.87,0.65-6.25,0.65h-6.92l-2.21,10.24c-0.07,0.37-0.26,0.69-0.58,0.95c-0.32,0.27-0.66,0.4-1.03,0.4h-6.57
		c-0.37,0-0.66-0.13-0.88-0.4c-0.22-0.27-0.29-0.58-0.23-0.95l6.92-32.41c0.07-0.37,0.26-0.69,0.58-0.95
		c0.32-0.27,0.66-0.4,1.03-0.4H466.12z M456.89,33.89h6.17c1.41,0,2.63-0.31,3.69-0.93c1.05-0.62,1.73-1.63,2.03-3.04
		c0.27-1.41,0.01-2.42-0.78-3.04c-0.79-0.62-1.88-0.93-3.29-0.93h-6.17L456.89,33.89z"/>
	<path class="st4" d="M497.28,18.19c1.94,0,3.75,0.26,5.42,0.78s3.08,1.28,4.21,2.28c1.14,1,1.95,2.26,2.43,3.76
		c0.48,1.5,0.53,3.23,0.12,5.17c-0.54,2.51-1.49,4.51-2.86,6c-1.37,1.49-3.11,2.67-5.22,3.54l3.71,11.94c0.03,0.17,0.03,0.35,0,0.55
		c-0.07,0.3-0.23,0.56-0.48,0.78c-0.25,0.22-0.53,0.33-0.83,0.33h-6.32c-0.67,0-1.12-0.15-1.35-0.45c-0.23-0.3-0.4-0.6-0.5-0.9
		l-3.26-10.74h-5.12l-2.31,10.74c-0.07,0.37-0.26,0.69-0.58,0.95c-0.32,0.27-0.66,0.4-1.03,0.4h-6.57c-0.37,0-0.66-0.13-0.88-0.4
		c-0.22-0.27-0.29-0.58-0.23-0.95l6.92-32.41c0.07-0.37,0.26-0.69,0.58-0.95c0.32-0.27,0.66-0.4,1.03-0.4H497.28z M488.9,33.39h5.67
		c1.41,0,2.63-0.27,3.66-0.8c1.04-0.54,1.71-1.51,2.01-2.91c0.27-1.41,0-2.38-0.8-2.91c-0.8-0.53-1.91-0.8-3.31-0.8h-5.67
		L488.9,33.39z"/>
	<path class="st4" d="M511.27,31.28c0.5-1.87,1.21-3.64,2.13-5.29c0.92-1.66,2.11-3.09,3.56-4.32c1.45-1.22,3.19-2.19,5.22-2.91
		c2.02-0.72,4.39-1.08,7.1-1.08c2.21,0,4.2,0.36,5.97,1.08c1.77,0.72,3.25,1.69,4.44,2.91c1.19,1.22,2.04,2.66,2.56,4.32
		c0.52,1.66,0.63,3.42,0.33,5.29c-0.23,1.44-0.52,2.94-0.85,4.52c-0.33,1.57-0.69,3.04-1.05,4.42c-0.5,1.87-1.22,3.64-2.16,5.29
		c-0.94,1.66-2.13,3.1-3.59,4.34c-1.46,1.24-3.19,2.21-5.22,2.91c-2.02,0.7-4.39,1.05-7.1,1.05c-2.21,0-4.2-0.35-5.97-1.05
		c-1.77-0.7-3.25-1.67-4.42-2.91c-1.17-1.24-2.01-2.68-2.53-4.34s-0.63-3.42-0.33-5.29c0.2-1.37,0.48-2.84,0.83-4.42
		C510.54,34.23,510.9,32.72,511.27,31.28z M531.44,39.96c0.17-0.6,0.34-1.27,0.53-2.01c0.18-0.74,0.36-1.49,0.53-2.26
		s0.32-1.51,0.45-2.23c0.13-0.72,0.23-1.36,0.3-1.93c0.1-0.84,0.08-1.61-0.05-2.31c-0.13-0.7-0.41-1.31-0.83-1.83
		c-0.42-0.52-0.98-0.93-1.68-1.23c-0.7-0.3-1.57-0.45-2.61-0.45s-1.96,0.15-2.78,0.45c-0.82,0.3-1.55,0.71-2.18,1.23
		c-0.64,0.52-1.17,1.13-1.61,1.83c-0.43,0.7-0.77,1.47-1,2.31c-0.17,0.57-0.34,1.21-0.53,1.93c-0.18,0.72-0.36,1.46-0.53,2.23
		c-0.17,0.77-0.32,1.52-0.45,2.26c-0.13,0.74-0.23,1.4-0.3,2.01c-0.2,1.67,0.08,3.06,0.85,4.16s2.19,1.66,4.26,1.66
		c2.11,0,3.78-0.55,5.02-1.66C530.07,43.02,530.94,41.64,531.44,39.96z"/>
</g>
</svg>
