<?xml version="1.0" encoding="utf-8"?>
<!-- Generator: Adobe Illustrator 24.1.2, SVG Export Plug-In . SVG Version: 6.00 Build 0)  -->
<svg version="1.1" id="Livello_1" xmlns="http://www.w3.org/2000/svg" xmlns:xlink="http://www.w3.org/1999/xlink" x="0px" y="0px"
	 viewBox="0 0 841.89 595.28" style="enable-background:new 0 0 841.89 595.28;" xml:space="preserve">
<style type="text/css">
	.st0{fill:#AAAAAA;}
	.st1{fill:#A0A0A0;}
</style>
<rect x="-89" y="-38.72" class="st0" width="1019.25" height="673.5"/>
<path class="st1" d="M205.24,112.73c-5.94,5.54-11.62,11.35-17.03,17.42c31.82,47.93,50.39,105.41,50.39,167.15
	c0,64.37-20.18,124.11-54.52,173.23c5.25,6.2,10.79,12.15,16.6,17.83c38.85-53.76,61.78-119.77,61.78-191.06
	C262.46,228.86,241.31,165.28,205.24,112.73"/>
<path class="st1" d="M288.02,60.7c-9.12,3.55-17.99,7.6-26.58,12.12c44.08,63.83,69.94,141.19,69.94,224.49
	c0,86.74-28.04,167.04-75.49,232.32c8.48,4.72,17.24,8.99,26.26,12.76c50.5-71.16,77.74-156.02,77.74-245.08
	C359.9,211.76,334.77,130.08,288.02,60.7"/>
<path class="st1" d="M171.8,150.59c-4.67,6.45-9.05,13.13-13.12,20.01c21.33,37.4,33.53,80.65,33.53,126.71
	c0,48.28-13.41,93.48-36.68,132.08c3.91,6.98,8.12,13.76,12.63,20.33c28.79-43.79,45.58-96.17,45.58-152.4
	C213.74,243.48,198.36,193.2,171.8,150.59"/>
<path class="st1" d="M143.52,200.43c-3.72,8.69-6.98,17.62-9.76,26.76c7.79,21.94,12.04,45.54,12.04,70.12
	c0,26.37-4.9,51.61-13.8,74.89c2.55,9.21,5.59,18.22,9.1,27c15.29-30.71,23.91-65.3,23.91-101.88
	C165.01,262.7,157.3,229.87,143.52,200.43"/>
<path class="st1" d="M337.25,47.01c-10.84,1.88-21.45,4.43-31.78,7.61c47.05,71.46,72.32,155.12,72.32,242.68
	c0,91.22-27.43,178.22-78.34,251.58c10.26,3.44,20.8,6.25,31.58,8.39c50.48-76.52,77.59-166.16,77.59-259.98
	C408.63,207.42,383.73,121.37,337.25,47.01"/>
<path class="st1" d="M243.88,82.95c-7.4,4.67-14.55,9.69-21.42,15.06C261.85,154.57,285,223.28,285,297.31
	c0,77.06-25.08,148.36-67.46,206.19c6.74,5.53,13.77,10.73,21.05,15.57c45.61-62.18,72.59-138.87,72.59-221.76
	C311.18,217.68,286.27,143.77,243.88,82.95"/>
<path class="st1" d="M391.72,43.38c-3.29-0.12-6.59-0.21-9.91-0.21c-9.37,0-18.61,0.51-27.73,1.48
	c45.68,75.44,70.1,162.16,70.1,252.65c0,94.55-26.66,184.99-76.38,262.74c11.13,1.46,22.47,2.22,34,2.22c1.2,0,2.4-0.03,3.6-0.05
	c46.9-79.42,71.94-170.24,71.94-264.92C457.35,206.97,434.55,120.14,391.72,43.38"/>
<path class="st1" d="M594.72,154.68c9.92,46.36,15.05,94.1,15.05,142.63c0,54.1-6.36,107.21-18.65,158.52
	c31.37-42.92,49.9-95.84,49.9-153.1C641.03,247.69,623.9,196.67,594.72,154.68"/>
<path class="st1" d="M585.49,142.17c-16.32-20.73-35.73-38.9-57.54-53.83c23.28,66.24,35.43,136.66,35.43,208.96
	c0,77.54-13.97,152.92-40.66,223.29c22.19-14.42,42.05-32.14,58.86-52.48c14.44-55.07,21.93-112.36,21.93-170.81
	C603.51,244.38,597.36,192.41,585.49,142.17"/>
<path class="st1" d="M516.01,80.63c-15.85-9.62-32.82-17.59-50.66-23.67c33.8,74.52,51.63,156.06,51.63,240.35
	c0,89.15-19.93,175.21-57.62,253.15c18-5.64,35.16-13.2,51.23-22.43c28.99-72.39,44.2-150.38,44.2-230.72
	C554.79,222.13,541.47,149.02,516.01,80.63"/>
<path class="st1" d="M451.34,52.63c-14.19-3.95-28.87-6.72-43.92-8.2c41.26,76.84,63.16,163.17,63.16,252.87
	c0,94.16-24.13,184.6-69.46,264.25c15.1-1.12,29.84-3.53,44.12-7.13c39.78-78.75,60.83-166.31,60.83-257.13
	C506.07,211.26,487.17,128.12,451.34,52.63"/>
</svg>
